<svg height="512pt" viewBox="0 0 512 512" width="512pt" xmlns="http://www.w3.org/2000/svg"><path d="m512 256c0 50.542969-14.648438 97.675781-39.945312 137.363281-28.078126 44.082031-69.277344 78.984375-118.09375 99.222657-30.167969 12.507812-63.261719 19.414062-97.960938 19.414062-46.121094 0-89.390625-12.195312-126.757812-33.542969-77.207032-44.070312-129.242188-127.195312-129.242188-222.457031 0-11.273438.730469-22.382812 2.152344-33.269531.398437-3.0625.847656-6.101563 1.359375-9.121094.355469-2.121094.730469-4.242187 1.136719-6.34375 3.292968-17.179687 8.328124-33.730469 14.878906-49.496094 2.675781-6.4375 5.613281-12.75 8.789062-18.914062 16.457032-31.929688 39.445313-59.957031 67.1875-82.304688 43.90625-35.382812 99.726563-56.550781 160.496094-56.550781 36.195312 0 70.644531 7.511719 101.867188 21.074219 46.601562 20.230469 86.003906 53.929687 113.308593 96.183593 7.628907 11.785157 14.304688 24.253907 19.925781 37.273438 7.148438 16.519531 12.589844 33.957031 16.132813 52.066406.054687.21875.09375.449219.136719.667969 3.039062 15.777344 4.628906 32.066406 4.628906 48.734375zm0 0" fill="#52b5d8"/><path d="m507.234375 206.597656h-225.089844c-10.242187 0-18.546875-8.308594-18.546875-18.546875 0-5.121093 2.078125-9.761719 5.441406-13.113281 3.34375-3.355469 7.984376-5.445312 13.105469-5.445312h114.414063c10.242187 0 18.546875-8.304688 18.546875-18.546876 0-5.121093-2.078125-9.757812-5.421875-13.113281-3.363282-3.355469-8.003906-5.433593-13.125-5.433593h-52.109375c-10.238281 0-18.546875-8.304688-18.546875-18.558594 0-5.117188 2.082031-9.757813 5.433594-13.101563 3.355468-3.363281 7.996093-5.445312 13.113281-5.445312h15.746093c10.242188 0 18.550782-8.304688 18.550782-18.554688 0-5.132812-2.082032-9.761719-5.445313-13.125-3.34375-3.355469-7.984375-5.421875-13.105469-5.421875h-56.402343c-10.238281 0-18.546875-8.308594-18.546875-18.546875 0-5.140625 2.078125-9.769531 5.445312-13.136719 3.34375-3.351562 7.980469-5.433593 13.101563-5.433593h54.074219c46.601562 20.230469 86.003906 53.929687 113.308593 96.183593 7.628907 11.785157 14.304688 24.253907 19.925781 37.273438 7.148438 16.519531 12.589844 33.957031 16.132813 52.066406zm0 0" fill="#92dcf0"/><path d="m507.371094 304.734375c-3.542969 18.347656-9.039063 36.007813-16.269532 52.734375-5.621093 13.019531-12.296874 25.488281-19.925781 37.273438-45.589843 70.5625-124.929687 117.257812-215.175781 117.257812-60.769531 0-116.589844-21.167969-160.496094-56.550781-27.742187-22.347657-50.730468-50.375-67.1875-82.304688-3.175781-6.164062-6.113281-12.476562-8.789062-18.914062-6.550782-15.765625-11.585938-32.316407-14.878906-49.496094zm0 0" fill="#55627a"/><path d="m273.136719 57.898438v227.914062c0 13.445312-10.910157 24.355469-24.355469 24.355469h-224.425781c-8.839844 0-16.59375-4.722657-20.84375-11.777344-.511719-3.019531-.960938-6.058594-1.359375-9.121094-1.421875-10.886719-2.152344-21.996093-2.152344-33.269531v-198.101562c0-13.449219 10.910156-24.355469 24.355469-24.355469h224.425781c13.445312 0 24.355469 10.90625 24.355469 24.355469zm0 0" fill="#f76c59"/><g fill="#e85142"><path d="m84.679688 310.167969h-60.324219c-8.839844 0-16.59375-4.722657-20.84375-11.777344-.511719-3.019531-.960938-6.058594-1.359375-9.121094-1.421875-10.886719-2.152344-21.996093-2.152344-33.269531v-198.101562c0-13.449219 10.910156-24.355469 24.355469-24.355469 0 66.820312 12.277343 174.882812 49.71875 255.726562 3.320312 7.199219 6.863281 14.179688 10.605469 20.898438zm0 0"/><path d="m53.574219 284.628906c-4.46875 0-8.09375-3.625-8.09375-8.097656v-209.351562c0-4.472657 3.625-8.097657 8.09375-8.097657 4.472656 0 8.097656 3.625 8.097656 8.097657v209.351562c0 4.472656-3.625 8.097656-8.097656 8.097656zm0 0"/><path d="m108.90625 284.628906c-4.472656 0-8.097656-3.625-8.097656-8.097656v-209.351562c0-4.472657 3.625-8.097657 8.097656-8.097657 4.46875 0 8.09375 3.625 8.09375 8.097657v209.351562c0 4.472656-3.625 8.097656-8.09375 8.097656zm0 0"/><path d="m164.230469 284.628906c-4.472657 0-8.09375-3.625-8.09375-8.097656v-209.351562c0-4.472657 3.621093-8.097657 8.09375-8.097657 4.472656 0 8.097656 3.625 8.097656 8.097657v209.351562c0 4.472656-3.625 8.097656-8.097656 8.097656zm0 0"/><path d="m219.558594 284.628906c-4.46875 0-8.09375-3.625-8.09375-8.097656v-209.351562c0-4.472657 3.625-8.097657 8.09375-8.097657 4.472656 0 8.097656 3.625 8.097656 8.097657v209.351562c0 4.472656-3.625 8.097656-8.097656 8.097656zm0 0"/></g><path d="m441.988281 394.742188c0 33.945312-27.515625 61.460937-61.460937 61.460937-33.945313 0-61.464844-27.515625-61.464844-61.460937 0-33.945313 27.519531-61.464844 61.464844-61.464844 33.945312 0 61.460937 27.519531 61.460937 61.464844zm0 0" fill="#36435e"/><path d="m380.527344 421.148438c-14.5625 0-26.410156-11.847657-26.410156-26.40625 0-14.5625 11.847656-26.410157 26.410156-26.410157s26.40625 11.847657 26.40625 26.410157c0 14.558593-11.84375 26.40625-26.40625 26.40625zm0 0" fill="#e6e6e6"/><path d="m147.332031 394.742188c0 30.667968-22.464843 56.089843-51.828125 60.707031-27.742187-22.347657-50.730468-50.375-67.1875-82.304688 8.734375-23.292969 31.199219-39.863281 57.554688-39.863281 33.9375 0 61.460937 27.511719 61.460937 61.460938zm0 0" fill="#36435e"/><path d="m292.570312 289.269531-19.433593 105.472657h-109.546875c0-34.765626-22.820313-64.199219-54.304688-74.125-.105468-.03125-.207031-.0625-.300781-.09375-7.304687-2.277344-15.070313-3.5-23.113281-3.5-27.628906 0-51.902344 14.417968-65.671875 36.140624-.222657.347657-.449219.699219-.671875 1.066407-8.503906-20.449219-14.4375-42.234375-17.375-64.960938zm0 0" fill="#ffda73"/><path d="m491.101562 229.710938v127.757812c-5.621093 13.019531-12.296874 25.488281-19.925781 37.273438h-12.9375c0-42.925782-34.792969-77.71875-77.707031-77.71875-42.925781 0-77.71875 34.792968-77.71875 77.71875h-29.675781v-271.308594c0-12.027344 9.75-21.765625 21.765625-21.765625h115.699218c19.949219 0 37.835938 12.269531 45.015626 30.878906l33.625 87.164063c1.222656 3.195312 1.859374 6.582031 1.859374 10zm0 0" fill="#ffda73"/><path d="m85.867188 421.148438c-14.5625 0-26.410157-11.847657-26.410157-26.40625 0-14.5625 11.847657-26.410157 26.410157-26.410157s26.40625 11.847657 26.40625 26.410157c0 14.558593-11.84375 26.40625-26.40625 26.40625zm0 0" fill="#e6e6e6"/><path d="m456.445312 224.542969h-150.96875v-90.546875h105.125c6.53125 0 12.496094 4.097656 14.84375 10.1875zm0 0" fill="#e6e6e6"/><path d="m338.613281 263.152344h-33.136719c-4.328124 0-7.835937-3.511719-7.835937-7.835938 0-4.328125 3.507813-7.839844 7.835937-7.839844h33.136719c4.328125 0 7.835938 3.511719 7.835938 7.839844 0 4.324219-3.507813 7.835938-7.835938 7.835938zm0 0" fill="#3b404d"/><path d="m109.285156 320.617188c-.105468-.03125-.207031-.0625-.300781-.09375-7.304687-2.277344-15.070313-3.5-23.113281-3.5-27.628906 0-51.902344 14.417968-65.671875 36.140624-.222657.347657-.449219.699219-.671875 1.066407-8.503906-20.449219-14.4375-42.234375-17.375-64.960938h90.40625c3.320312 7.199219 6.863281 14.179688 10.605468 20.898438 1.972657 3.5625 4.023438 7.042969 6.121094 10.449219zm0 0" fill="#f9a54b"/><path d="m318.316406 348.140625c-9.738281 12.988281-15.503906 29.121094-15.503906 46.601563h-29.675781v-271.308594c0-12.027344 9.75-21.765625 21.765625-21.765625 0 69.882812-7.609375 210.746093 23.414062 246.472656zm0 0" fill="#f9a54b"/><path d="m249.945312 382.515625h-66.585937c-5.417969 0-9.808594-4.390625-9.808594-9.804687v-28.972657c0-5.414062 4.390625-9.804687 9.808594-9.804687h66.585937c5.414063 0 9.804688 4.390625 9.804688 9.804687v28.972657c0 5.414062-4.390625 9.804687-9.804688 9.804687zm0 0" fill="#55627a"/></svg>